<svg width="45" height="45" viewBox="0 0 45 45" fill="none" xmlns="http://www.w3.org/2000/svg">
<path fill-rule="evenodd" clip-rule="evenodd" d="M34.9884 7.95704L29.5397 6.47266L29.2808 7.38992L33.9404 10.1463L35.2994 9.21272L38.2358 14.1069L38.8044 13.0824L41.8952 16.4463L43.4906 10.2733L34.9884 7.95704" fill="#00A0A8"/>
<path fill-rule="evenodd" clip-rule="evenodd" d="M1.84912 8.03659L1.84943 8.0369C2.00446 8.57444 2.16135 9.10704 2.321 9.63224C2.44799 9.50187 2.58022 9.38259 2.71429 9.26793C2.74234 9.24389 2.77008 9.21954 2.79874 9.19611C2.9282 9.08947 3.05981 8.98868 3.19326 8.89529C3.22162 8.87557 3.24998 8.85738 3.27833 8.83796C3.397 8.75752 3.51659 8.6817 3.63648 8.61081C3.66299 8.5954 3.68919 8.57844 3.71539 8.56334C3.84669 8.48844 3.97768 8.41971 4.10837 8.35498C4.15059 8.33403 4.19251 8.31399 4.23474 8.29396C4.36018 8.23478 4.48501 8.17837 4.60768 8.12783H4.60799L3.54926 7.70557L1.84912 8.03659" fill="#00A0A8"/>
<path fill-rule="evenodd" clip-rule="evenodd" d="M29.6172 5.23975L29.5889 7.16951C29.5889 7.16951 40.8669 10.8826 43.0944 12.2752L44.0339 9.36988L29.6172 5.23975" fill="#00777C"/>
<path fill-rule="evenodd" clip-rule="evenodd" d="M3.74016 6.47266C2.74584 6.70012 2.0018 6.90385 1.54102 7.03916C1.63471 7.38005 1.73119 7.71447 1.82735 8.04858L3.52749 7.71755L4.58622 8.13951C5.05564 7.94656 5.5004 7.81403 5.87519 7.72526C5.28742 7.21762 4.4053 6.74666 3.81814 6.50471L3.74016 6.47266" fill="#00777C"/>
<path fill-rule="evenodd" clip-rule="evenodd" d="M33.9688 32.7486C34.199 32.3908 34.4462 32.0268 34.6891 31.6575C34.9693 31.1147 35.2615 30.5784 35.5756 30.0591C35.9226 29.4846 36.2314 28.8358 36.6528 28.3072C36.6432 28.2801 36.6355 28.2517 36.6253 28.2249C36.4333 28.06 36.2484 27.8858 36.0397 27.7397C35.6298 27.8307 35.272 28.1244 34.8685 28.2421C34.8287 28.2535 34.7921 28.2557 34.7575 28.2523C34.057 29.1166 33.5395 30.2101 33.0109 31.1792C32.7406 31.6751 32.4336 32.1285 31.9805 32.4071C31.9506 32.4463 31.9207 32.4857 31.8905 32.5248C31.8606 32.5218 31.8295 32.5245 31.7989 32.5236C31.586 32.7061 31.3351 32.7924 31.0851 32.9459C30.8931 33.0636 30.7143 33.1962 30.5414 33.3364C30.5294 33.3802 30.5205 33.4252 30.5137 33.4702C30.5383 33.492 30.5627 33.5155 30.5818 33.55C30.6434 33.6616 30.7115 33.7679 30.784 33.8708C31.1803 34.1168 31.5166 34.4444 31.8846 34.7317C31.9198 34.7234 31.9558 34.7163 31.9897 34.7064C32.068 34.7539 32.1509 34.7853 32.2351 34.8063C32.6465 34.4759 32.9939 34.0737 33.4134 33.758C33.402 33.717 33.389 33.676 33.3702 33.6347C33.5835 33.3527 33.7771 33.0467 33.9688 32.7486" fill="#00777C"/>
<path fill-rule="evenodd" clip-rule="evenodd" d="M36.5571 17.6606C36.7257 17.561 36.8657 17.4131 36.9791 17.2568C36.9415 16.7104 36.7227 16.1802 36.0618 16.0273L36.0615 16.0283C36.5128 16.7624 36.5571 17.6606 36.5571 17.6606" fill="#EEA52D"/>
<path fill-rule="evenodd" clip-rule="evenodd" d="M35.8196 19.4409C34.4011 20.2519 32.3737 19.9171 32.3737 19.9171C34.4172 19.8432 35.1553 18.4932 35.1553 18.4932C35.1553 18.4932 33.1997 19.7285 30.8218 18.712C30.8218 18.712 31.8904 22.5016 35.8196 19.4409" fill="#EEA52D"/>
<path fill-rule="evenodd" clip-rule="evenodd" d="M31.9764 17.2519C31.9715 17.0508 31.9826 16.8467 32.006 16.6438C31.7684 16.722 31.438 16.7954 31.1304 16.75C31.5637 17.08 31.9764 17.2519 31.9764 17.2519" fill="#EEA52D"/>
<path fill-rule="evenodd" clip-rule="evenodd" d="M32.3243 23.2872C32.3243 23.2872 31.4921 22.5949 30.5271 22.5L30.1572 22.6507C30.1535 22.6526 29.8888 22.7657 29.5889 22.995C30.3193 22.9232 31.1404 22.8991 31.6462 23.065L32.3243 23.2872" fill="#EEA52D"/>
<path fill-rule="evenodd" clip-rule="evenodd" d="M28.2672 22.7263C28.4598 22.4896 28.6713 22.2911 28.8741 22.1317C28.3079 21.5911 27.9522 20.8896 27.7404 20.3431L27.7398 20.3425C27.7398 20.3425 27.721 21.8405 28.2672 22.7263" fill="#EEA52D"/>
<path fill-rule="evenodd" clip-rule="evenodd" d="M37.7912 22.7879C37.6442 23.208 37.2814 23.457 36.9686 23.6003C36.9686 23.6003 37.7696 23.8127 38.0982 23.3818C38.0982 23.3818 40.3673 23.3427 41.2657 22.938C40.1861 23.6201 36.1169 26.1197 33.1189 27.0111C33.1189 27.0111 33.388 24.767 34.324 24.369C34.324 24.369 32.7419 24.0109 31.5621 25.2296C32.1782 24.9818 32.9426 24.7734 33.568 24.9066C33.568 24.9066 30.6476 26.0032 30.213 27.3649L30.1609 26.3342C30.1258 25.6401 30.3751 24.8144 30.6041 24.2165C29.9359 24.2257 29.0239 24.3441 28.3951 24.4637L28.0906 24.5216C28.025 24.8455 27.9753 25.1892 27.9673 25.5184C27.9673 25.5184 28.9832 24.9328 29.6422 25.0514C29.6422 25.0514 29.182 26.668 29.4545 28.2797C29.4545 28.2797 29.1836 27.7835 27.4316 27.5693C27.4316 27.5693 27.4323 27.5699 27.4323 27.5702C29.5654 29.14 30.1618 31.8375 30.3104 32.8072C30.4821 32.9033 30.708 33.0448 30.9648 33.2414C31.653 32.4903 33.6358 30.1457 33.8691 27.834L33.907 27.4608L34.2556 27.3227C37.5727 26.0094 41.3709 24.2242 41.8939 23.5612C41.897 23.0502 41.8748 22.7056 41.8554 22.5C40.2489 22.9374 37.7912 22.7879 37.7912 22.7879" fill="#EEA52D"/>
<path fill-rule="evenodd" clip-rule="evenodd" d="M42.9687 20.4325C42.4383 20.3521 41.7485 20.1631 41.3191 19.7261C41.3644 20.0281 41.5191 20.3977 41.9735 20.6282C41.9735 20.6282 41.5228 21.8244 37.9111 22.2325C37.9191 22.354 37.9148 22.4313 37.9148 22.4313C40.7751 22.4618 42.4389 21.4909 42.4389 21.4909C42.7338 21.2687 43.1062 20.885 42.9215 20.4529L42.9687 20.4325" fill="#EEA52D"/>
<path fill-rule="evenodd" clip-rule="evenodd" d="M12.6939 28.436C14.021 27.2876 14.7552 25.5597 15.1325 24.3494C14.3814 25.2457 12.9318 26.2785 10.1714 27.2038C11.3537 29.1967 12.5632 31.0004 13.7751 32.6303C13.2468 29.8594 15.2142 27.8628 15.2142 27.8628C14.2143 27.6264 12.6939 28.436 12.6939 28.436" fill="#EEA52D"/>
<path fill-rule="evenodd" clip-rule="evenodd" d="M13.504 24.1841C13.4356 24.4054 13.3536 24.6372 13.2534 24.8727C13.9731 24.4578 14.7326 23.8774 15.1977 23.1165C14.7261 23.8072 13.982 24.0781 13.504 24.1841" fill="#EEA52D"/>
<path fill-rule="evenodd" clip-rule="evenodd" d="M12.5467 23.1165C10.2834 23.9144 9.48915 25.2536 9.24658 25.8128C9.44199 26.1592 9.63802 26.4998 9.83497 26.8351L11.2457 25.5649C12.0042 24.8822 12.3722 23.8546 12.5467 23.1165" fill="#EEA52D"/>
<path fill-rule="evenodd" clip-rule="evenodd" d="M31.7576 38.2977C31.5496 38.5951 31.2432 39.471 30.6708 39.4997C30.0988 39.5287 29.6025 38.5341 29.3976 38.895C29.3976 38.895 27.5674 30.4892 20.0342 36.2021C21.9149 36.0581 26.5253 36.1799 28.5851 40.4857L28.7445 40.8189L27.5347 42.4666C27.838 42.6435 28.2405 42.8029 28.6135 42.7619C28.9772 42.7212 29.2943 42.4975 29.5837 42.0777L29.7566 41.8274L30.0602 41.812C30.1231 41.8083 31.6608 41.7056 31.6901 40.5856L31.7018 40.1331L32.1376 40.0089C32.1339 40.0092 32.3552 39.9232 32.4992 39.6144C32.6021 39.3928 32.6776 39.0368 32.6034 38.4823C32.2397 38.297 31.859 38.1528 31.7576 38.2977" fill="#EEA52D"/>
<path fill-rule="evenodd" clip-rule="evenodd" d="M24.6362 20.959C24.1119 21.1837 23.8881 21.433 23.8752 21.4481L22.9878 22.4622L22.793 21.1368C22.7924 21.1325 22.7924 21.1285 22.7918 21.1245C22.2589 22.1364 21.5463 23.2469 20.6509 24.1327L22.098 24.0597C22.3412 23.7998 22.5973 23.4747 22.7708 23.1128L23.2461 23.8217C23.2461 23.8217 23.5842 22.8169 23.9846 22.5417C23.9846 22.5417 24.4515 24.8444 25.1161 25.3844C25.1161 25.3844 24.7502 23.9592 24.7092 22.6542C24.5933 22.0381 24.5939 21.4383 24.6362 20.959" fill="#EEA52D"/>
<path fill-rule="evenodd" clip-rule="evenodd" d="M19.6258 25.5823L17.2603 25.7016L18.5341 26.5464C18.9098 26.1904 19.2822 25.8637 19.6258 25.5823" fill="#EEA52D"/>
<path fill-rule="evenodd" clip-rule="evenodd" d="M22.639 18.0234C22.7552 17.2836 22.9552 16.6213 23.2123 16.0273C23.089 16.0332 22.949 16.0483 22.8002 16.0705C22.614 16.6493 22.1708 17.7078 21.2671 18.4956C21.3808 19.0929 21.4952 19.9929 21.3895 20.8716C22.1483 19.4951 22.5749 18.2206 22.639 18.0234" fill="#EEA52D"/>
<path fill-rule="evenodd" clip-rule="evenodd" d="M21.3349 16.442C21.2017 16.4741 21.072 16.4923 20.9456 16.4987C20.1467 16.5391 19.5013 16.1073 19.1299 15.7192C19.1037 15.9871 19.0994 16.2124 19.136 16.3394C19.2664 16.79 20.0138 17.542 20.7147 17.7858C20.9989 17.3864 21.2621 16.9278 21.4508 16.4143C21.4415 16.4164 21.4307 16.4189 21.4218 16.4211L21.3349 16.442" fill="#EEA52D"/>
<path fill-rule="evenodd" clip-rule="evenodd" d="M21.076 25.8904C20.2841 26.4711 18.9261 27.5545 17.877 28.8521C18.4191 28.7852 19.0312 28.7408 19.5783 28.7769C19.7777 28.1462 20.2364 26.946 21.076 25.8904" fill="#EEA52D"/>
<path fill-rule="evenodd" clip-rule="evenodd" d="M25.8906 13.9258C25.9218 13.8977 28.5324 11.5506 30.0161 11.4757C30.0161 11.4757 29.7384 11.0436 29.2616 11.0676C29.2616 11.0676 30.2402 9.66308 30.4347 8.61884C30.1055 8.49062 29.7693 8.3849 29.4318 8.32202C29.0311 9.55367 28.5099 10.7292 28.0583 11.6474C28.3699 11.5204 28.5666 11.4622 28.5777 11.4591C28.5777 11.4591 27.1676 12.3437 25.8906 13.9258" fill="#EEA52D"/>
<path fill-rule="evenodd" clip-rule="evenodd" d="M16.9427 30.1974L16.644 30.2652C17.0614 30.3814 17.7191 30.5698 18.2412 30.7405C18.51 30.4187 18.7726 30.1358 19.013 29.8972C18.2939 29.9407 17.4842 30.0744 16.9427 30.1974" fill="#EEA52D"/>
<path fill-rule="evenodd" clip-rule="evenodd" d="M19.0038 12.5561C19.6748 9.24338 22.4139 8.19173 22.4478 8.1791L22.5767 8.14704C23.6798 7.99725 24.622 8.24351 25.3778 8.88369C26.1233 9.51461 26.5474 10.4269 26.7882 11.2406C26.9984 10.8202 27.2289 10.3339 27.4567 9.81081C27.1371 9.01591 26.4202 7.53615 25.2061 6.56649C25.2061 6.56649 25.3432 7.38821 25.2686 7.80615C25.2686 7.80615 22.4386 5.39988 20.0755 5.93341C20.0755 5.93341 20.9354 6.5591 21.2664 7.43475C21.2664 7.43475 16.7313 5.97471 13.1119 8.13317C13.1119 8.13317 16.4043 8.33413 17.8464 10.3881C17.8464 10.3881 14.2119 11.4213 12.6372 14.0994V14.0997C14.9831 13.077 17.872 12.6794 19.0038 12.5561" fill="#EEA52D"/>
<path fill-rule="evenodd" clip-rule="evenodd" d="M10.1125 13.2534C7.8662 14.2302 5.729 16.1325 4.93164 16.8879C5.33048 17.8853 5.73887 18.851 6.15527 19.7861C6.35407 18.5492 7.12801 15.7158 10.1125 13.2534" fill="#EEA52D"/>
<path fill-rule="evenodd" clip-rule="evenodd" d="M9.22988 8.40332C9.22988 8.40332 8.42081 6.24641 5.72389 5.8562C6.46547 6.30867 7.28286 6.94606 7.60156 7.69288L7.94153 8.4887L7.0779 8.54973C7.05016 8.55189 4.20653 8.79199 2.77393 10.8235C3.21838 12.2074 3.68163 13.5389 4.15999 14.8229C4.08725 13.0463 4.63464 9.80757 9.22988 8.40332" fill="#EEA52D"/>
<path fill-rule="evenodd" clip-rule="evenodd" d="M18.337 20.929C15.948 17.162 12.9453 19.5442 12.9453 19.5442C16.316 18.7684 18.337 20.929 18.337 20.929" fill="#EEA52D"/>
<path fill-rule="evenodd" clip-rule="evenodd" d="M25.5826 18.8606C25.5826 18.8606 26.6876 16.1279 29.5552 15.4893C29.5552 15.4893 25.5265 14.5933 25.5826 18.8606" fill="#EEA52D"/>
<path fill-rule="evenodd" clip-rule="evenodd" d="M27.7543 40.0569C27.8101 39.4744 27.2282 38.9489 26.6524 39.0876C26.5165 39.1205 26.392 39.1717 26.2736 39.2321C23.7049 36.9886 19.9397 37.6808 19.7455 37.7188L18.9405 37.8753L19.0132 37.0585C19.0779 36.3382 19.1907 35.6595 19.3313 35.0308C18.9445 34.1804 18.7281 32.9611 19.3535 31.4385C18.3733 32.569 17.2329 34.3364 16.9521 36.6511C18.9294 38.8589 20.8533 40.6357 22.6107 42.0489C22.6234 42.2178 22.6844 42.391 22.8114 42.5556C23.2053 43.066 23.7542 43.3286 24.3889 43.3878C24.8062 43.427 25.1856 43.1493 25.3265 42.7671C25.3302 42.7575 25.3345 42.7483 25.3379 42.7384C25.6036 42.7412 25.8717 42.6287 26.0668 42.3436C26.2317 42.1029 26.3963 41.8621 26.5612 41.6214C26.6019 41.5619 26.7418 41.3406 26.8562 41.1576C27.3823 41.0182 27.7034 40.5867 27.7543 40.0569" fill="#EEA52D"/>
<path fill-rule="evenodd" clip-rule="evenodd" d="M16.3786 27.7397C16.364 27.7543 16.35 27.7695 16.3354 27.7841C16.3494 27.7689 16.3652 27.7556 16.3786 27.7397" fill="#58B893"/>
<path fill-rule="evenodd" clip-rule="evenodd" d="M12.6877 23.3013C12.7029 23.2405 12.7211 23.1754 12.7351 23.1165C12.7011 23.1286 12.6707 23.142 12.6372 23.1542C12.6536 23.2034 12.6676 23.2539 12.6877 23.3013" fill="#58B893"/>
<path fill-rule="evenodd" clip-rule="evenodd" d="M15.4111 29.1514C15.582 29.1301 15.7584 29.1113 15.9353 29.093C15.9165 28.9465 15.8739 28.8036 15.821 28.6643C15.683 28.8255 15.5443 28.9866 15.4111 29.1514" fill="#58B893"/>
<path fill-rule="evenodd" clip-rule="evenodd" d="M12.9164 19.7882C12.9164 19.7882 15.9191 17.406 18.3084 21.173C18.3084 21.173 16.2871 19.0127 12.9164 19.7882ZM18.5482 26.606L17.2718 25.7596L15.4022 25.854L18.4101 24.5095C19.7878 23.8937 20.8666 22.4256 21.619 21.0593C21.7235 20.1818 21.6091 19.2833 21.4954 18.6876C20.9304 19.1795 20.1858 19.566 19.2087 19.6618C19.2087 19.6618 20.1629 19.0207 20.9526 17.9121C20.2526 17.6667 19.5074 16.9168 19.3773 16.4665C19.3403 16.3395 19.3446 16.1133 19.3711 15.8449C19.2999 15.7712 19.2377 15.6988 19.1877 15.6316L19.0894 15.499L19.0703 15.3354C19.0527 15.1846 19.0453 15.0426 19.0352 14.898C19.0198 14.8915 19.0016 14.8844 18.9896 14.8786C19.0028 14.857 19.0164 14.836 19.0284 14.8139C19.0105 14.5251 19.0019 14.2437 19.0102 13.9777C18.018 14.0991 16.1542 14.3839 14.4113 14.9615C15.167 15.283 16.0417 15.7644 16.7241 16.4514L17.879 17.614C17.879 17.614 13.8062 16.334 10.328 18.6281C11.3522 17.1159 13.1374 16.5602 14.4963 16.3627C13.4848 15.8393 12.5025 15.6236 12.488 15.6205L10.7391 15.246L12.3468 14.4634C12.4895 14.3941 12.6384 14.3312 12.786 14.2668V14.2646C14.3607 11.5865 17.9952 10.5533 17.9952 10.5533C16.5531 8.49937 13.2604 8.29872 13.2604 8.29872C16.8801 6.13995 21.4152 7.59999 21.4152 7.59999C21.0842 6.72465 20.224 6.09865 20.224 6.09865C22.5871 5.56513 25.4175 7.9717 25.4175 7.9717C25.4917 7.55345 25.3549 6.73204 25.3549 6.73204C26.568 7.70078 27.2847 9.179 27.6046 9.97451C28.1581 8.70311 28.6932 7.20947 28.8658 5.8792C28.5394 6.1566 28.1514 6.4081 27.7143 6.55358L27.1802 6.73143L26.9546 6.21547C26.9413 6.18526 25.816 3.67266 23.7349 2.37721C23.9158 2.96376 24.036 3.70009 23.9747 4.57389L23.8788 5.93653L22.92 4.96286C22.8879 4.93019 20.043 2.07763 16.755 1.54102C16.7528 1.54379 16.7503 1.54626 16.7485 1.54903C17.1945 2.20492 17.6886 3.10615 17.9481 4.15934L18.3186 5.66345L17.0157 4.82509C16.9901 4.80876 14.5811 3.3068 10.6698 3.24639C11.0418 3.72413 11.408 4.36769 11.6182 5.19865L11.8373 6.06506L10.9493 5.9618C10.9154 5.9581 8.15719 5.64804 5.88438 6.10297C5.88685 6.10451 5.88931 6.10605 5.89147 6.10759C8.58284 6.50057 9.39068 8.65348 9.39068 8.65348C4.80161 10.0556 4.24959 13.2876 4.32048 15.0657C4.39969 15.279 4.47798 15.4956 4.55842 15.7058C5.56784 14.7846 7.5013 13.1735 9.61013 12.2288C9.09387 12.0488 8.41178 11.9172 7.59007 12.0081L5.13911 12.2788C11.9039 8.28362 14.5614 10.0648 14.5614 10.0648C12.7515 9.82287 10.9333 10.3878 9.64928 10.9531C10.7854 11.2672 11.4561 11.8315 11.4983 11.8676L12.3684 12.6144L11.2656 12.9282C10.9213 13.0262 10.5752 13.1544 10.2318 13.3036C7.24054 15.7666 6.46445 18.6031 6.26503 19.8425C6.26996 19.8539 6.27489 19.8659 6.28013 19.8773C6.72674 18.7406 7.59376 17.267 9.26924 16.0621C9.26924 16.0621 7.11387 18.9415 7.05007 21.5494C7.58698 22.6805 8.13561 23.7618 8.69287 24.7995C9.35061 23.8308 10.6855 22.54 13.31 21.9014L14.1228 21.7035L14.0707 22.5384C14.0673 22.5942 14.018 23.3013 13.7455 24.1794C14.2183 24.0749 14.9516 23.808 15.4244 23.133C15.6001 22.851 15.7372 22.5449 15.8143 22.2117C15.8143 22.2117 16.1777 23.2162 15.1007 24.503C14.7244 25.7137 13.9899 27.4459 12.66 28.5968C12.66 28.5968 14.1807 27.7871 15.1806 28.0232C15.1806 28.0232 13.2702 29.9628 13.7205 32.6712C13.7816 32.7861 13.8448 32.8999 13.9107 33.0111C14.5691 33.888 15.2277 34.7177 15.883 35.4944C16.3367 33.5006 17.3144 31.9484 18.2205 30.8625C17.696 30.6912 17.0351 30.5019 16.6187 30.3857L15.5551 30.627L16.2516 29.4096C16.8508 28.3619 17.7083 27.4025 18.5482 26.606V26.606Z" fill="#FED81C"/>
<path fill-rule="evenodd" clip-rule="evenodd" d="M35.7682 19.5315C31.8942 22.4966 30.8383 18.7496 30.8383 18.7496C33.0032 19.6752 34.8131 18.7366 35.1207 18.5606C31.4393 19.8869 30.1842 15.8702 30.1842 15.8702C30.2656 16.1877 30.6956 16.4336 31.1166 16.6038C31.4353 16.6333 31.7845 16.5933 32.0317 16.5514C32.2166 15.7626 33.1801 15.0146 34.6309 15.2744C35.235 15.3829 35.6311 15.7525 35.8924 16.1766L35.8937 16.1655C36.5597 16.3196 36.7761 16.8568 36.8112 17.4082C37.06 17.0649 37.1786 16.6817 37.1786 16.6817C37.2674 18.2265 36.6168 19.0748 35.7682 19.5315ZM25.4509 18.7135C25.3948 14.4462 29.4235 15.3422 29.4235 15.3422C26.5559 15.9808 25.4509 18.7135 25.4509 18.7135ZM33.0497 14.3152C33.0497 14.3152 30.8293 12.2505 27.884 14.576C27.884 14.576 29.8757 10.636 33.0497 14.3152ZM37.9569 22.1588L37.9572 22.1585C41.5689 21.7501 42.0195 20.5539 42.0195 20.5539C41.5714 20.3264 41.4145 19.9637 41.3667 19.6638C41.093 19.3854 40.9238 19.0076 40.9722 18.4891C41.0486 17.6736 41.195 17.1872 41.3408 16.8938C40.7065 16.3146 39.7923 15.3934 39.126 14.3568C39.1167 14.4949 39.1173 14.6191 39.1303 14.7208L39.4474 17.1995L38.0136 15.1527C37.7341 14.7532 35.8012 11.9595 34.8457 9.67653C34.7835 9.92095 34.7474 10.1423 34.756 10.3084L34.8337 11.8519L33.7146 10.7855C33.6961 10.7676 32.1562 9.3227 30.3781 8.63013C30.1787 9.67283 29.2078 11.0669 29.2078 11.0669C29.6846 11.0429 29.9623 11.475 29.9623 11.475C28.5747 11.545 26.2027 13.6017 25.8747 13.8914C24.9312 15.0482 24.0516 16.585 23.8556 18.4306L23.9228 18.4515C23.9144 18.4783 23.8827 18.5776 23.8294 18.7317C23.8022 19.1567 23.809 19.5963 23.8623 20.0515C24.2119 19.8774 24.6628 19.7115 25.2296 19.6049L26.1931 19.4233C26.1931 19.4233 24.6024 22.3524 25.2934 24.3638C24.947 23.8669 24.7553 23.3121 24.6532 22.7697C24.6961 24.0719 25.0601 25.4894 25.0601 25.4894C24.3956 24.9491 23.9286 22.6464 23.9286 22.6464C23.5282 22.9216 23.1901 23.9264 23.1901 23.9264L22.7148 23.2175C22.5382 23.5855 22.2762 23.9156 22.0294 24.1776L23.7945 24.0886L21.8481 25.3396C21.8392 25.3455 21.5732 25.519 21.1697 25.8158C20.3391 26.8727 19.8869 28.0649 19.6918 28.6853C20.0216 28.7066 20.3292 28.7559 20.582 28.8484L21.6986 29.2568L20.7213 29.9339C20.7062 29.9447 19.9991 30.4493 19.1842 31.3924C18.5705 32.907 18.7903 34.1192 19.1765 34.9647C19.7769 32.281 20.8819 30.5162 20.9392 30.4258C19.8364 33.5349 20.1539 36.1963 20.1717 36.3366L20.1727 36.3372C27.7058 30.6243 29.536 39.0301 29.536 39.0301C29.741 38.6692 30.2372 39.6638 30.8093 39.6351C31.3817 39.6062 31.688 38.7302 31.8961 38.4328C31.9972 38.2882 32.3772 38.4318 32.7406 38.6171C32.6947 38.2808 32.5942 37.8721 32.4111 37.3756C31.3866 34.5976 29.6048 33.8415 29.5299 33.8104L29.1764 33.6658C29.402 28.0316 26.244 26.7873 24.7895 26.5121C25.8914 26.6844 26.775 27.0934 27.487 27.6269C27.4645 27.601 27.4491 27.5834 27.4491 27.5834C29.201 27.7977 29.4719 28.2939 29.4719 28.2939C29.1995 26.6825 29.6596 25.0659 29.6596 25.0659C29.0007 24.9472 27.9848 25.5329 27.9848 25.5329C27.9925 25.208 28.0409 24.869 28.1053 24.549L27.3822 24.6868L27.7126 23.6906C27.8399 23.3075 28.0378 22.9836 28.2603 22.7111C27.7268 21.8543 27.728 20.4192 27.7286 20.3292C27.5477 19.8619 27.4722 19.5084 27.4645 19.4708C27.4645 19.4708 28.5775 21.6333 31.5724 22.1724L30.617 22.5616C31.5715 22.6661 32.3892 23.3461 32.3892 23.3461L32.3821 23.3562L32.3898 23.3587L32.0715 23.9976C31.9571 24.2263 31.7401 24.721 31.5857 25.2379C32.7653 24.0269 34.3415 24.3832 34.3415 24.3832C33.4054 24.7811 33.1364 27.0253 33.1364 27.0253C36.1344 26.1339 40.2035 23.6342 41.2832 22.9525C40.3847 23.3571 38.1156 23.396 38.1156 23.396C37.8151 23.7902 37.121 23.6466 37.0045 23.6191C36.7123 23.756 36.4586 23.8001 36.4586 23.8001C37.5864 23.0267 37.1842 20.7638 37.1842 20.7638C37.8028 21.1087 37.9319 21.8083 37.9569 22.1588V22.1588Z" fill="#FED81C"/>
<path fill-rule="evenodd" clip-rule="evenodd" d="M36.6873 18.8074C36.6873 18.8074 36.6892 18.8019 36.6892 18.8013C36.6855 18.8061 36.6819 18.811 36.6782 18.8159C36.6813 18.8128 36.6843 18.8104 36.6873 18.8074" fill="#41886D"/>
<path fill-rule="evenodd" clip-rule="evenodd" d="M30.6713 24.1902C30.4426 24.7881 30.1933 25.6139 30.2284 26.308L30.2805 27.3386C30.7151 25.9769 33.6355 24.8803 33.6355 24.8803C33.0101 24.7471 32.2457 24.9555 31.6296 25.2033C31.7843 24.68 32.0053 24.176 32.1209 23.9445L32.4393 23.3056L31.7612 23.0834C31.2554 22.9176 30.4343 22.9416 29.7038 23.0134C30.0037 22.7841 30.2685 22.671 30.2722 22.6691L30.6421 22.5184L31.6219 22.1193C28.6269 21.5802 27.5139 19.4177 27.5139 19.4177C27.5216 19.4553 27.5978 19.8107 27.7793 20.2795C27.9911 20.826 28.3467 21.5275 28.9126 22.0681C28.7101 22.2275 28.4987 22.4259 28.3061 22.6627C28.0848 22.9342 27.8884 23.2566 27.7621 23.6376L27.4316 24.6337L28.1581 24.4953L28.4626 24.4374C29.0914 24.3178 30.0034 24.1994 30.6713 24.1902" fill="#1A1919"/>
<path fill-rule="evenodd" clip-rule="evenodd" d="M35.3054 16.075C35.4391 16.2263 35.5917 16.4301 35.5766 16.6458C35.5646 16.819 35.4921 16.955 35.3753 17.0533C35.3679 17.0638 35.363 17.0745 35.3541 17.0847C35.2379 17.2203 35.0788 17.2749 34.9121 17.29C34.8449 17.314 34.7712 17.3273 34.692 17.3267C34.0235 17.3202 33.5815 16.3283 34.1024 15.8626C34.4692 15.5347 35.0138 15.7446 35.3054 16.075ZM33.1102 16.4415C33.5072 16.4214 33.5383 17.0369 33.141 17.0573C32.7441 17.0773 32.7132 16.4615 33.1102 16.4415ZM32.0509 16.4452C32.0274 16.55 32.0164 16.6554 32.0213 16.7592C32.0213 16.7592 31.6086 16.6705 31.1752 16.5C30.7425 16.3296 30.2894 16.0778 30.2056 15.7511C30.2056 15.7511 31.4717 19.8081 35.1938 18.4242C35.1938 18.4242 34.4556 19.7742 32.4121 19.8482C32.4121 19.8482 34.4396 20.1829 35.858 19.372C36.148 19.2062 36.4116 18.9917 36.6282 18.717C36.6301 18.7146 36.6319 18.7121 36.6338 18.7096C37.0215 18.214 37.2555 17.5249 37.2 16.5626C37.2 16.5626 37.0816 16.9454 36.8329 17.2884C36.7195 17.4447 36.5795 17.5927 36.4109 17.6922C36.4109 17.6922 36.3666 16.7941 35.9153 16.0599C35.6543 15.6345 35.2576 15.2638 34.6522 15.1553C33.1938 14.8942 32.2281 15.6515 32.0509 16.4452V16.4452Z" fill="#1A1919"/>
<path fill-rule="evenodd" clip-rule="evenodd" d="M33.2136 14.2072C30.0396 10.528 28.0479 14.468 28.0479 14.468C30.9932 12.1424 33.2136 14.2072 33.2136 14.2072" fill="#1A1919"/>
<path fill-rule="evenodd" clip-rule="evenodd" d="M23.3107 12.8788C23.7487 12.9007 24.2166 13.0052 24.6879 13.2425C24.0988 11.1907 22.1919 10.1711 22.1919 10.1711C22.1919 10.1711 23.1582 11.5375 23.3123 12.8785L23.3107 12.8788" fill="#A76521"/>
<path fill-rule="evenodd" clip-rule="evenodd" d="M23.8244 14.8959C24.0093 14.6129 24.2059 14.35 24.4112 14.1071C23.7602 13.3008 22.4417 13.2318 21.7411 13.2577C21.7454 13.2608 22.2318 13.6011 22.4127 14.2418C22.4127 14.2418 21.2997 15.3893 20.0342 14.845C20.2049 15.0167 20.5828 15.3188 21.0473 15.2075L21.1333 15.1865C22.061 14.9634 23.0788 14.7199 23.8244 14.8959" fill="#A76521"/>
<path fill-rule="evenodd" clip-rule="evenodd" d="M22.7416 13.2723V13.2723C22.5495 13.2607 22.3676 13.2559 22.1919 13.2534C22.3676 13.2559 22.5501 13.2607 22.7416 13.2723" fill="#E1E2E0"/>
<path fill-rule="evenodd" clip-rule="evenodd" d="M24.3491 13.8699C24.4178 13.9264 24.4829 13.9866 24.548 14.0474V14.0468C24.4829 13.986 24.4172 13.9264 24.3491 13.8699" fill="#E1E2E0"/>
<path fill-rule="evenodd" clip-rule="evenodd" d="M22.7624 9.26901C22.3275 9.45548 19.691 10.7596 20.0716 14.7525C21.3372 15.2969 22.4502 14.1494 22.4502 14.1494C22.2695 13.5098 21.7847 13.1695 21.7789 13.1655C21.4981 13.1754 21.3156 13.2007 21.3156 13.2007C21.3618 13.1701 21.4136 13.1396 21.4679 13.1091C21.482 13.1014 21.4968 13.0937 21.5116 13.0857C21.5572 13.0616 21.605 13.0376 21.6553 13.0142C21.6688 13.008 21.6818 13.0019 21.6953 12.9957C21.8313 12.935 21.9826 12.8789 22.1472 12.8311C22.1481 12.8311 22.1487 12.8308 22.1493 12.8305C22.4911 12.7322 22.8881 12.6739 23.3147 12.6949L23.3163 12.6946C23.1621 11.3535 22.1959 9.98716 22.1959 9.98716C24.2286 10.3382 25.2516 11.8226 25.7148 12.7972C25.741 12.7765 25.7669 12.7584 25.7928 12.7383C25.7262 12.0926 25.4701 10.5309 24.5239 9.73195C24.0557 9.33713 23.479 9.18487 22.7624 9.26901" fill="#D19627"/>
<path fill-rule="evenodd" clip-rule="evenodd" d="M32.9914 17.2598C33.3961 17.2398 33.3643 16.6242 32.9596 16.6443C32.5549 16.6643 32.5863 17.2798 32.9914 17.2598" fill="#FFFFFE"/>
<path fill-rule="evenodd" clip-rule="evenodd" d="M34.1331 15.8839C33.6122 16.3496 34.0542 17.3415 34.7227 17.3477C34.8019 17.3486 34.8756 17.3353 34.9428 17.3113C35.1095 17.2962 35.2686 17.2416 35.3851 17.1057C35.3937 17.0955 35.3986 17.0847 35.406 17.0746C35.5229 16.9759 35.5953 16.8403 35.6073 16.6671C35.6224 16.4513 35.4698 16.2476 35.3361 16.096C35.0445 15.7656 34.4999 15.556 34.1331 15.8839" fill="#FFFFFE"/>
<path fill-rule="evenodd" clip-rule="evenodd" d="M40.0684 9.55469C40.0848 9.74526 40.1024 9.94882 40.12 10.1628C40.1024 9.94882 40.0848 9.74526 40.0684 9.55469" fill="#DEDFDE"/>
<path fill-rule="evenodd" clip-rule="evenodd" d="M41.2829 15.2356C40.7626 14.7045 40.0207 13.6544 40.0207 13.6544C39.7205 13.1801 39.4949 12.6996 39.4188 12.2499L38.995 9.74435L38.2235 12.1657C38.1985 12.2446 38.0873 12.6012 37.9822 13.0571C36.888 11.3363 35.4887 8.88411 35.4363 7.71442L35.4088 7.09767C36.8695 7.46075 38.3264 7.86514 39.7778 8.31884L39.7859 8.31236C41.642 8.8989 42.7586 9.44075 42.8748 9.49808C42.419 11.4864 41.8848 13.4014 41.2829 15.2356ZM42.9044 20.3841L42.8573 20.4044C43.0419 20.8365 42.6696 21.2203 42.3749 21.4425C42.3749 21.4425 40.7108 22.4134 37.8509 22.3829C37.8509 22.3829 37.8549 22.3055 37.8468 22.1841C37.8237 21.8376 37.6986 21.1257 37.0732 20.7771C37.0732 20.7771 37.4754 23.04 36.3477 23.8133C36.3477 23.8133 36.5912 23.7705 36.8757 23.6404C37.1885 23.4971 37.5513 23.248 37.6983 22.8279C37.6983 22.8279 40.156 22.9774 41.7625 22.5401C41.7819 22.7457 41.8041 23.0902 41.801 23.6013C41.2779 24.2642 37.4798 26.0495 34.1627 27.3631L33.8434 27.4895C33.8434 27.4895 32.392 31.1942 30.1167 32.3082C29.8566 31.0993 29.1563 28.9473 27.3393 27.6103C26.6338 27.0909 25.7603 26.6946 24.6785 26.5253C26.133 26.8006 29.291 28.0449 29.0654 33.6791L29.4189 33.8237C29.4938 33.8548 31.2756 34.6109 32.3001 37.3888C32.4857 37.8918 32.5865 38.3046 32.6315 38.6433C32.7058 39.1978 32.6302 39.5538 32.5273 39.7754C32.3834 40.0842 32.1621 40.1702 32.1658 40.1699L31.7299 40.2941L31.7182 40.7466C31.6889 41.8666 30.1512 41.9693 30.0884 41.973L29.7848 41.9884L29.6118 42.2387C29.3224 42.6585 29.0053 42.8822 28.6416 42.9229C28.2686 42.9639 27.8661 42.8046 27.5628 42.6276L28.7726 40.9799L28.6132 40.6467C26.5534 36.3409 21.943 36.2191 20.0623 36.3631C20.0623 36.3631 19.6952 33.6332 20.8282 30.4391C20.7709 30.5294 19.6628 32.2961 19.063 34.9841C18.9225 35.6129 18.8097 36.2916 18.745 37.0119L18.6722 37.8287L19.4773 37.6721C19.6721 37.6339 23.4586 36.9373 26.0276 39.2039C26.4511 39.3679 26.8628 40.1138 26.8628 40.1138C26.8638 40.1147 26.8644 40.116 26.865 40.1169C25.6833 41.4379 24.688 42.4418 23.9896 43.1143C23.9847 43.1082 23.9788 43.1026 23.9751 43.0955C23.6521 42.9294 22.5626 42.148 22.2109 41.8941C20.4889 40.4985 18.6121 38.7576 16.6839 36.6044C16.9647 34.2897 18.1051 32.5224 19.0852 31.3918C19.8949 30.4579 20.5952 29.9577 20.6103 29.9472L21.5874 29.27L20.471 28.8616C20.2192 28.7695 19.9143 28.7189 19.5858 28.6971C19.0387 28.661 18.4266 28.7054 17.8844 28.7723C18.9336 27.4747 20.2916 26.3913 21.0834 25.8106C21.4733 25.5246 21.7282 25.3584 21.7372 25.3529L23.6836 24.1018L21.9316 24.1903L20.4846 24.2633C21.3799 23.3775 22.0925 22.267 22.6254 21.2551C22.6261 21.2591 22.6261 21.2631 22.6267 21.2674L22.8215 22.5928L23.7088 21.5787C23.7218 21.5636 23.9455 21.3143 24.4698 21.0896C24.4276 21.5689 24.427 22.1687 24.5429 22.7848C24.6449 23.3266 24.8366 23.8808 25.1824 24.3771C24.4914 22.3656 26.0821 19.4366 26.0821 19.4366L25.1186 19.6182C24.5518 19.7248 24.1009 19.8906 23.7514 20.0648C23.698 19.6095 23.6913 19.17 23.7184 18.745C23.7717 18.5909 23.8035 18.4916 23.8115 18.4648L23.7446 18.4438C23.9378 16.6226 24.7968 15.1024 25.7264 13.9509C27.0034 12.3688 28.4135 11.4842 28.4135 11.4842C28.4024 11.4873 28.2058 11.5456 27.8941 11.6726C28.3457 10.7544 28.8669 9.57884 29.2676 8.34719C29.6051 8.41007 29.9413 8.51579 30.2705 8.64401C32.0471 9.33719 33.5851 10.7809 33.6036 10.7988L34.7227 11.8652L34.6451 10.3216C34.6364 10.1555 34.6725 9.93421 34.7348 9.68979C35.6902 11.9728 37.6231 14.7665 37.9026 15.1659L39.3365 17.2128L39.0193 14.7341C39.0064 14.6324 39.0058 14.5082 39.015 14.3701C39.6814 15.4066 40.5955 16.3279 41.2299 16.9071C41.0841 17.2005 40.9377 17.6868 40.8612 18.5024C40.8128 19.0205 40.9814 19.399 41.2548 19.6776C41.6842 20.1147 42.374 20.3036 42.9044 20.3841ZM35.2196 28.6218L31.9919 34.2425C31.9919 34.2425 31.3588 33.6329 30.9159 33.3139C31.835 32.6238 34.1331 30.7202 34.945 28.3962L34.9477 28.3984C34.9493 28.3907 34.9514 28.3833 34.9527 28.3756C35.1358 28.3022 35.3136 28.2307 35.4884 28.1598C35.398 28.3164 35.3068 28.465 35.2162 28.6194L35.2196 28.6218ZM23.9671 43.1362L23.9551 43.1159C23.9551 43.1159 23.9653 43.1199 23.9785 43.1251C23.9748 43.1288 23.9708 43.1328 23.9671 43.1362ZM24.6529 13.2232C23.2628 12.5242 21.894 12.9585 21.2767 13.3656C21.2767 13.3656 23.4996 13.0518 24.4097 14.1796C24.2045 14.4225 24.0078 14.6854 23.8229 14.9684C23.0773 14.7924 22.0596 15.0359 21.1318 15.259L21.0458 15.28C20.5813 15.3912 20.2035 15.0892 20.0327 14.9175C19.6521 10.9245 22.2886 9.62044 22.7235 9.43397C23.4401 9.34983 24.0167 9.50209 24.4849 9.89692C25.4312 10.6958 25.6873 12.2576 25.7539 12.9033C25.728 12.9233 25.7021 12.9415 25.6759 12.9622C25.2126 11.9876 24.1897 10.5032 22.157 10.1521C22.157 10.1521 24.0639 11.1717 24.6529 13.2232ZM13.4988 32.7002C12.2868 31.0703 11.0774 29.2666 9.89507 27.2737C12.6555 26.3484 14.105 25.3156 14.8562 24.4193C15.9359 23.1309 15.5718 22.1243 15.5718 22.1243C15.497 22.4476 15.3663 22.7457 15.198 23.0209C14.7329 23.7819 13.9734 24.3623 13.2537 24.7771C13.3539 24.5416 13.4359 24.3099 13.5043 24.0886C13.7759 23.212 13.8249 22.5068 13.8283 22.451L13.8803 21.616L13.0676 21.8139C10.4431 22.4525 9.10819 23.7434 8.45045 24.7121C7.89319 23.6743 7.34455 22.5931 6.80764 21.4619C6.87144 18.8541 9.02682 15.9747 9.02682 15.9747C7.35134 17.1795 6.48432 18.6531 6.03771 19.7898C6.03247 19.7781 6.02723 19.7658 6.02199 19.7538C5.60558 18.8186 5.19719 17.853 4.79836 16.8556C5.59572 16.1001 7.73291 14.1978 9.9789 13.2211C10.326 13.0703 10.6755 12.9397 11.0232 12.8407L12.126 12.527L11.2559 11.7801C11.2136 11.7441 10.5429 11.1797 9.40685 10.8657C10.6909 10.3004 12.5091 9.73541 14.3189 9.97736C14.3189 9.97736 11.6615 8.19616 4.89668 12.1913L7.34764 11.9207C8.16935 11.8298 8.85144 11.9614 9.36771 12.1414C7.25887 13.0861 5.32541 14.6971 4.31599 15.6184C4.23586 15.4088 4.15726 15.1946 4.07805 14.9822C3.59969 13.6982 3.13644 12.3667 2.69199 10.9828C4.12459 8.9513 6.96822 8.7112 6.99596 8.70904L7.85959 8.64801L7.51962 7.85219C7.20092 7.10538 6.38353 6.46798 5.64195 6.01551C7.91476 5.56058 10.673 5.87065 10.7069 5.87435L11.5949 5.9776L11.3758 5.1112C11.1655 4.28024 10.7994 3.63668 10.4274 3.15894C14.3387 3.21935 16.7477 4.7213 16.7733 4.73764L18.0761 5.57599L17.7057 4.07188C17.4449 3.01315 16.9468 2.1076 16.499 1.45079C19.7926 1.98154 22.6455 4.84274 22.6775 4.87541L23.6364 5.84908L23.7323 4.48644C23.7936 3.61264 23.6734 2.8763 23.4925 2.28976C25.5736 3.58521 26.6989 6.09781 26.7121 6.12801L26.9377 6.64397L27.4719 6.46613C27.9089 6.32065 28.297 6.06914 28.6234 5.79175C28.4508 7.1214 27.916 8.61442 27.3628 9.88551C27.135 10.4086 26.9045 10.8949 26.6942 11.3153C26.4535 10.5016 26.0294 9.58931 25.2838 8.95839C24.5281 8.31822 23.5859 8.07195 22.4827 8.22175L22.3539 8.2538C22.32 8.26644 19.5809 9.31808 18.9099 12.6308C17.7781 12.7541 14.8891 13.1517 12.5433 14.1744C12.3947 14.2391 12.248 14.306 12.1044 14.376L10.4967 15.1585L12.2455 15.533C12.26 15.5361 13.2423 15.7518 14.2539 16.2752C12.895 16.4728 11.1098 17.0285 10.0855 18.5406C13.5638 16.2465 17.6366 17.5266 17.6366 17.5266L16.4817 16.364C15.7993 15.677 14.9246 15.1955 14.1688 14.874C15.9118 14.2964 17.7756 14.0116 18.7678 13.8902C18.7545 14.3137 18.7715 14.7649 18.8279 15.2479L18.847 15.4116L18.9453 15.5441C18.9946 15.6107 19.0584 15.6825 19.1284 15.7559C19.4998 16.1439 20.1452 16.5757 20.9441 16.5353C21.0705 16.5289 21.2002 16.5107 21.3334 16.4786L21.4203 16.4577C21.4292 16.4555 21.44 16.453 21.4493 16.4509C21.2606 16.9644 20.9974 17.423 20.7133 17.8225C19.923 18.933 18.9663 19.5744 18.9663 19.5744C19.9439 19.4785 20.688 19.0914 21.2529 18.5989C22.157 17.8111 22.6002 16.7526 22.7863 16.1738C22.9352 16.1516 23.0751 16.1365 23.1984 16.1307C22.9414 16.7246 22.7413 17.387 22.6251 18.1267C22.561 18.3239 22.1345 19.5984 21.3756 20.9749C20.6233 22.3407 19.5442 23.8068 18.1677 24.4221L15.1598 25.7665L17.0337 25.6719L19.3993 25.5526C19.0557 25.834 18.6833 26.1607 18.3076 26.5167C17.4671 27.3135 16.609 28.2736 16.0092 29.3221L15.3126 30.5399L16.3825 30.297L16.6811 30.2292C17.2227 30.1062 18.0324 29.9725 18.7514 29.929C18.511 30.1676 18.2484 30.4505 17.9797 30.7723C17.0732 31.8588 16.0946 33.4125 15.6406 35.407C14.9292 34.5634 14.2135 33.6618 13.4988 32.7002ZM9.1464 25.9776C9.38897 25.4185 10.1833 24.0793 12.4465 23.2813C12.2721 24.0195 11.904 25.0471 11.1455 25.7298L9.73479 27.0003C9.53784 26.6647 9.34182 26.3241 9.1464 25.9776ZM1.49579 6.97408C1.95658 6.83877 2.70062 6.63503 3.69493 6.40757L3.77291 6.43962C4.36007 6.68158 5.24219 7.15253 5.82997 7.66017C4.84767 7.89349 3.38548 8.4187 2.25401 9.57914C1.99479 8.72723 1.74021 7.86329 1.49579 6.97408ZM29.8399 5.93384C31.4149 6.20014 32.9868 6.51976 34.5548 6.88993L34.2681 7.46784C34.2068 7.59205 33.8304 8.3663 33.5974 9.18031C32.6974 8.48065 31.1973 7.48479 29.6091 7.15408C29.7086 6.74322 29.7875 6.33452 29.8399 5.93384ZM44.6024 8.61688L44.6021 8.61719C43.6216 8.20325 41.7412 7.61455 40.0096 7.10291C38.7996 6.72719 37.5858 6.38168 36.3689 6.06791C36.2857 6.0451 36.2376 6.03216 36.2376 6.03216L36.2423 6.03586C35.9454 5.96003 35.6486 5.88329 35.3515 5.81086L35.3299 5.32572L35.1166 5.7563C33.3832 5.34051 31.6442 4.98699 29.9019 4.69603C29.8933 4.46856 29.8766 4.2451 29.8405 4.03151L29.5561 2.34986L28.6995 3.825C28.6961 3.83086 28.5245 4.11503 28.2434 4.43743C27.8615 4.38226 27.4796 4.33356 27.0977 4.28455C26.243 2.95058 24.6532 1.03346 22.3209 0.46387L20.409 0L21.7165 1.47545C21.7433 1.50565 22.1946 2.02654 22.4069 2.99466C20.9071 1.79661 18.1242 -0.00893836 15.1212 0.142705L13.7256 0.212979L14.7187 1.1962C14.7283 1.20606 15.4279 1.90664 15.9833 2.98818C14.5381 2.40997 12.0754 1.73281 8.86932 1.97445L6.85264 2.12887L8.61257 3.12565C8.62058 3.13027 9.14979 3.45205 9.61675 4.14832C4.0238 4.8039 0.71476 5.91997 0.544623 5.97853L0 6.16562L0.149486 6.72164C5.55935 26.84 14.8312 37.5722 21.6567 43.0329C21.8416 43.1809 22.0247 43.323 22.2072 43.4635C22.2087 43.4651 22.21 43.4666 22.2115 43.4678C22.9414 44.1188 24.3678 44.8739 24.3678 44.8739L24.6634 44.5972C24.664 44.5975 24.6646 44.5975 24.6649 44.5978C24.7118 44.554 24.7654 44.5025 24.8157 44.4548L24.8677 44.4064L24.8674 44.4058C25.2216 44.0683 25.6614 43.6371 26.173 43.1125L26.2791 43.2117C26.3201 43.2499 26.4766 43.3908 26.7161 43.5526C27.5517 44.0226 27.9015 44.0883 27.9015 44.0883C28.1321 44.1428 28.3777 44.1727 28.6339 44.1598C28.6789 44.1576 28.7242 44.1542 28.7698 44.149C29.4189 44.079 29.9829 43.7517 30.4505 43.1747C31.3542 43.045 32.6715 42.5093 32.9129 41.1577C33.1373 41.0101 33.4082 40.7648 33.6101 40.3672C33.9436 39.7107 33.9781 38.859 33.7238 37.8324L33.7343 37.8213C33.5641 37.097 33.1169 36.16 32.944 35.8129C32.8555 35.6446 32.7646 35.4868 32.6725 35.3339C34.3615 32.9986 36.1224 30.2742 37.7938 27.1868C38.1486 27.0302 38.4824 26.8798 38.7909 26.7365C40.3098 26.0112 42.2612 24.8024 42.2612 24.8024V24.8027C43.0249 24.21 43.0311 23.8947 43.0329 23.7144C43.0394 23.1765 43.0203 22.7833 42.9984 22.5166C43.6429 22.0673 44.3595 21.2378 44.0852 20.1995C45.4321 19.1386 44.5784 16.2509 44.5784 16.2509C44.3068 16.3698 43.3279 16.4228 42.5746 16.4463C42.5574 16.4321 42.5361 16.4133 42.5179 16.3982C43.18 14.453 43.7702 12.4185 44.2723 10.2998L44.2837 10.3065C44.2797 10.3028 44.2772 10.2991 44.2732 10.2954C44.3925 9.79274 44.5124 9.29127 44.6212 8.77931L44.6227 8.77993L44.6566 8.64L44.6024 8.61688V8.61688Z" fill="#1A1919"/>
</svg>
